<svg width="150" height="48" viewBox="0 0 150 48" fill="none" xmlns="http://www.w3.org/2000/svg">
<g filter="url(#filter0_b_2591_287)">
<rect width="150" height="48" rx="10" fill="white" fill-opacity="0.1"/>
</g>
<path d="M40.36 35L45.454 22.346H47.452L52.528 35H49.918L45.994 24.614H46.894L42.916 35H40.36ZM43.06 32.642V30.59H49.864V32.642H43.06ZM58.1952 35.18C57.5712 35.18 57.0072 35.054 56.5032 34.802C55.9992 34.538 55.5972 34.184 55.2972 33.74C54.9972 33.296 54.8352 32.786 54.8112 32.21V29.132C54.8352 28.556 54.9972 28.046 55.2972 27.602C55.6092 27.146 56.0112 26.786 56.5032 26.522C57.0072 26.258 57.5712 26.126 58.1952 26.126C58.9992 26.126 59.7192 26.324 60.3552 26.72C60.9912 27.116 61.4892 27.656 61.8492 28.34C62.2212 29.024 62.4072 29.798 62.4072 30.662C62.4072 31.514 62.2212 32.282 61.8492 32.966C61.4892 33.65 60.9912 34.19 60.3552 34.586C59.7192 34.982 58.9992 35.18 58.1952 35.18ZM57.7812 33.002C58.2132 33.002 58.5972 32.906 58.9332 32.714C59.2692 32.51 59.5272 32.234 59.7072 31.886C59.8992 31.526 59.9952 31.112 59.9952 30.644C59.9952 30.188 59.8992 29.786 59.7072 29.438C59.5272 29.078 59.2692 28.802 58.9332 28.61C58.5972 28.406 58.2132 28.304 57.7812 28.304C57.3612 28.304 56.9832 28.406 56.6472 28.61C56.3112 28.802 56.0472 29.078 55.8552 29.438C55.6752 29.786 55.5852 30.188 55.5852 30.644C55.5852 31.112 55.6752 31.526 55.8552 31.886C56.0472 32.234 56.3052 32.51 56.6292 32.714C56.9652 32.906 57.3492 33.002 57.7812 33.002ZM53.3712 38.636V26.306H55.7292V28.592L55.3332 30.698L55.7112 32.804V38.636H53.3712ZM68.2372 35.18C67.6132 35.18 67.0492 35.054 66.5452 34.802C66.0412 34.538 65.6392 34.184 65.3392 33.74C65.0392 33.296 64.8772 32.786 64.8532 32.21V29.132C64.8772 28.556 65.0392 28.046 65.3392 27.602C65.6512 27.146 66.0532 26.786 66.5452 26.522C67.0492 26.258 67.6132 26.126 68.2372 26.126C69.0412 26.126 69.7612 26.324 70.3972 26.72C71.0332 27.116 71.5312 27.656 71.8912 28.34C72.2632 29.024 72.4492 29.798 72.4492 30.662C72.4492 31.514 72.2632 32.282 71.8912 32.966C71.5312 33.65 71.0332 34.19 70.3972 34.586C69.7612 34.982 69.0412 35.18 68.2372 35.18ZM67.8232 33.002C68.2552 33.002 68.6392 32.906 68.9752 32.714C69.3112 32.51 69.5692 32.234 69.7492 31.886C69.9412 31.526 70.0372 31.112 70.0372 30.644C70.0372 30.188 69.9412 29.786 69.7492 29.438C69.5692 29.078 69.3112 28.802 68.9752 28.61C68.6392 28.406 68.2552 28.304 67.8232 28.304C67.4032 28.304 67.0252 28.406 66.6892 28.61C66.3532 28.802 66.0892 29.078 65.8972 29.438C65.7172 29.786 65.6272 30.188 65.6272 30.644C65.6272 31.112 65.7172 31.526 65.8972 31.886C66.0892 32.234 66.3472 32.51 66.6712 32.714C67.0072 32.906 67.3912 33.002 67.8232 33.002ZM63.4132 38.636V26.306H65.7712V28.592L65.3752 30.698L65.7532 32.804V38.636H63.4132ZM77.3793 35.18C76.3593 35.18 75.4833 35.006 74.7513 34.658C74.0313 34.31 73.3773 33.788 72.7893 33.092L74.4093 31.472C74.7813 31.964 75.2133 32.348 75.7053 32.624C76.1973 32.888 76.7973 33.02 77.5053 33.02C78.1413 33.02 78.6453 32.894 79.0173 32.642C79.4013 32.39 79.5933 32.042 79.5933 31.598C79.5933 31.214 79.4853 30.902 79.2693 30.662C79.0533 30.422 78.7653 30.218 78.4053 30.05C78.0573 29.882 77.6673 29.732 77.2353 29.6C76.8153 29.456 76.3893 29.294 75.9573 29.114C75.5373 28.934 75.1473 28.712 74.7873 28.448C74.4393 28.172 74.1573 27.824 73.9413 27.404C73.7253 26.972 73.6173 26.432 73.6173 25.784C73.6173 25.016 73.8033 24.362 74.1753 23.822C74.5473 23.282 75.0573 22.868 75.7053 22.58C76.3533 22.292 77.0853 22.148 77.9013 22.148C78.7653 22.148 79.5453 22.31 80.2413 22.634C80.9373 22.958 81.5073 23.378 81.9513 23.894L80.3313 25.514C79.9593 25.106 79.5753 24.806 79.1793 24.614C78.7953 24.422 78.3573 24.326 77.8653 24.326C77.3013 24.326 76.8573 24.434 76.5333 24.65C76.2093 24.866 76.0473 25.178 76.0473 25.586C76.0473 25.934 76.1553 26.216 76.3713 26.432C76.5873 26.648 76.8693 26.834 77.2173 26.99C77.5773 27.146 77.9673 27.296 78.3873 27.44C78.8193 27.584 79.2453 27.746 79.6653 27.926C80.0973 28.106 80.4873 28.34 80.8353 28.628C81.1953 28.916 81.4833 29.288 81.6993 29.744C81.9153 30.188 82.0233 30.74 82.0233 31.4C82.0233 32.576 81.6093 33.5 80.7813 34.172C79.9533 34.844 78.8193 35.18 77.3793 35.18ZM84.4413 35V22.688H86.7993V35H84.4413ZM82.4073 28.376V26.306H88.8333V28.376H82.4073ZM93.4945 35.18C92.6185 35.18 91.8265 34.982 91.1185 34.586C90.4225 34.178 89.8645 33.632 89.4445 32.948C89.0365 32.252 88.8325 31.478 88.8325 30.626C88.8325 29.774 89.0365 29.012 89.4445 28.34C89.8525 27.656 90.4105 27.116 91.1185 26.72C91.8265 26.312 92.6125 26.108 93.4765 26.108C94.3645 26.108 95.1565 26.312 95.8525 26.72C96.5605 27.116 97.1185 27.656 97.5265 28.34C97.9345 29.012 98.1385 29.774 98.1385 30.626C98.1385 31.478 97.9345 32.252 97.5265 32.948C97.1185 33.632 96.5605 34.178 95.8525 34.586C95.1565 34.982 94.3705 35.18 93.4945 35.18ZM93.4765 32.984C93.9205 32.984 94.3105 32.888 94.6465 32.696C94.9945 32.492 95.2585 32.216 95.4385 31.868C95.6305 31.508 95.7265 31.1 95.7265 30.644C95.7265 30.188 95.6305 29.786 95.4385 29.438C95.2465 29.09 94.9825 28.82 94.6465 28.628C94.3105 28.424 93.9205 28.322 93.4765 28.322C93.0445 28.322 92.6605 28.424 92.3245 28.628C91.9885 28.82 91.7245 29.09 91.5325 29.438C91.3405 29.786 91.2445 30.188 91.2445 30.644C91.2445 31.1 91.3405 31.508 91.5325 31.868C91.7245 32.216 91.9885 32.492 92.3245 32.696C92.6605 32.888 93.0445 32.984 93.4765 32.984ZM99.1165 35V26.306H101.474V35H99.1165ZM101.474 30.194L100.556 29.582C100.664 28.514 100.976 27.674 101.492 27.062C102.008 26.438 102.752 26.126 103.724 26.126C104.144 26.126 104.522 26.198 104.858 26.342C105.194 26.474 105.5 26.696 105.776 27.008L104.3 28.7C104.168 28.556 104.006 28.448 103.814 28.376C103.634 28.304 103.424 28.268 103.184 28.268C102.68 28.268 102.266 28.43 101.942 28.754C101.63 29.066 101.474 29.546 101.474 30.194ZM109.977 35.18C109.065 35.18 108.255 34.988 107.547 34.604C106.839 34.208 106.275 33.668 105.855 32.984C105.447 32.3 105.243 31.52 105.243 30.644C105.243 29.78 105.441 29.012 105.837 28.34C106.245 27.656 106.797 27.116 107.493 26.72C108.189 26.312 108.963 26.108 109.815 26.108C110.655 26.108 111.393 26.3 112.029 26.684C112.677 27.056 113.181 27.572 113.541 28.232C113.913 28.88 114.099 29.618 114.099 30.446C114.099 30.602 114.087 30.764 114.063 30.932C114.051 31.088 114.021 31.268 113.973 31.472L106.665 31.49V29.726L112.875 29.708L111.921 30.446C111.897 29.93 111.801 29.498 111.633 29.15C111.477 28.802 111.243 28.538 110.931 28.358C110.631 28.166 110.259 28.07 109.815 28.07C109.347 28.07 108.939 28.178 108.591 28.394C108.243 28.598 107.973 28.892 107.781 29.276C107.601 29.648 107.511 30.092 107.511 30.608C107.511 31.136 107.607 31.598 107.799 31.994C108.003 32.378 108.291 32.678 108.663 32.894C109.035 33.098 109.467 33.2 109.959 33.2C110.403 33.2 110.805 33.128 111.165 32.984C111.525 32.828 111.837 32.6 112.101 32.3L113.487 33.686C113.067 34.178 112.551 34.55 111.939 34.802C111.339 35.054 110.685 35.18 109.977 35.18Z" fill="white"/>
<path d="M40.6152 11.6587H42.7466C44.6274 11.6587 45.7393 12.832 45.7393 14.8271C45.7393 16.8267 44.6318 18 42.7466 18H40.6152V11.6587ZM41.4062 12.3706V17.2881H42.6938C44.1309 17.2881 44.9307 16.4092 44.9307 14.8359C44.9307 13.2495 44.1353 12.3706 42.6938 12.3706H41.4062ZM48.499 18.0791C47.2334 18.0791 46.3809 17.1694 46.3809 15.7148C46.3809 14.2559 47.2334 13.3506 48.499 13.3506C49.7603 13.3506 50.6128 14.2559 50.6128 15.7148C50.6128 17.1694 49.7603 18.0791 48.499 18.0791ZM48.499 17.4067C49.3076 17.4067 49.835 16.7915 49.835 15.7148C49.835 14.6382 49.3076 14.0229 48.499 14.0229C47.6904 14.0229 47.1587 14.6382 47.1587 15.7148C47.1587 16.7915 47.6904 17.4067 48.499 17.4067ZM57.2002 13.4297L55.9258 18H55.1479L54.1152 14.4624H54.0977L53.0693 18H52.2915L51.0127 13.4297H51.7729L52.687 17.1475H52.7046L53.7373 13.4297H54.4756L55.5127 17.1475H55.5303L56.4443 13.4297H57.2002ZM57.8286 18V13.4297H58.5493V14.1592H58.5669C58.8218 13.667 59.3096 13.3506 60.0171 13.3506C61.019 13.3506 61.5991 13.9966 61.5991 15.0337V18H60.8345V15.1699C60.8345 14.4316 60.4873 14.0273 59.7842 14.0273C59.0635 14.0273 58.5933 14.5371 58.5933 15.3105V18H57.8286ZM62.6143 18V11.6587H63.3789V18H62.6143ZM66.3057 18.0791C65.04 18.0791 64.1875 17.1694 64.1875 15.7148C64.1875 14.2559 65.04 13.3506 66.3057 13.3506C67.5669 13.3506 68.4194 14.2559 68.4194 15.7148C68.4194 17.1694 67.5669 18.0791 66.3057 18.0791ZM66.3057 17.4067C67.1143 17.4067 67.6416 16.7915 67.6416 15.7148C67.6416 14.6382 67.1143 14.0229 66.3057 14.0229C65.4971 14.0229 64.9653 14.6382 64.9653 15.7148C64.9653 16.7915 65.4971 17.4067 66.3057 17.4067ZM70.7002 17.4287C71.4209 17.4287 71.9746 16.9233 71.9746 16.2642V15.8906L70.7529 15.9653C70.1377 16.0049 69.7861 16.2773 69.7861 16.708C69.7861 17.1431 70.1509 17.4287 70.7002 17.4287ZM70.5288 18.0791C69.6191 18.0791 69.0083 17.5298 69.0083 16.708C69.0083 15.9258 69.6104 15.4336 70.665 15.3721L71.9746 15.2974V14.915C71.9746 14.3569 71.6055 14.0229 70.9727 14.0229C70.3838 14.0229 70.0146 14.2998 69.918 14.748H69.1797C69.2324 13.957 69.9092 13.3506 70.9902 13.3506C72.0625 13.3506 72.7393 13.9307 72.7393 14.8403V18H72.0142V17.2134H71.9966C71.7241 17.7363 71.144 18.0791 70.5288 18.0791ZM75.4419 18.0791C74.2773 18.0791 73.4863 17.1475 73.4863 15.7148C73.4863 14.2822 74.2729 13.3506 75.4243 13.3506C76.0791 13.3506 76.6064 13.6714 76.8789 14.1724H76.8965V11.6587H77.6611V18H76.9316V17.2266H76.9185C76.624 17.7539 76.1011 18.0791 75.4419 18.0791ZM75.5869 14.0229C74.7783 14.0229 74.2686 14.6821 74.2686 15.7148C74.2686 16.752 74.7783 17.4067 75.5869 17.4067C76.3735 17.4067 76.9009 16.7388 76.9009 15.7148C76.9009 14.6953 76.3735 14.0229 75.5869 14.0229ZM82.4336 18.0791C81.168 18.0791 80.3154 17.1694 80.3154 15.7148C80.3154 14.2559 81.168 13.3506 82.4336 13.3506C83.6948 13.3506 84.5474 14.2559 84.5474 15.7148C84.5474 17.1694 83.6948 18.0791 82.4336 18.0791ZM82.4336 17.4067C83.2422 17.4067 83.7695 16.7915 83.7695 15.7148C83.7695 14.6382 83.2422 14.0229 82.4336 14.0229C81.625 14.0229 81.0933 14.6382 81.0933 15.7148C81.0933 16.7915 81.625 17.4067 82.4336 17.4067ZM85.3208 18V13.4297H86.0415V14.1592H86.0591C86.314 13.667 86.8018 13.3506 87.5093 13.3506C88.5112 13.3506 89.0913 13.9966 89.0913 15.0337V18H88.3267V15.1699C88.3267 14.4316 87.9795 14.0273 87.2764 14.0273C86.5557 14.0273 86.0854 14.5371 86.0854 15.3105V18H85.3208ZM92.1587 12.3267H92.9233V13.4297H93.811V14.0581H92.9233V16.7739C92.9233 17.1914 93.0991 17.3804 93.4902 17.3804C93.5781 17.3804 93.7539 17.3672 93.8066 17.3584V18C93.7144 18.022 93.5034 18.0352 93.3232 18.0352C92.4839 18.0352 92.1587 17.6924 92.1587 16.8135V14.0581H91.4775V13.4297H92.1587V12.3267ZM94.668 18V11.6587H95.4326V14.1592H95.4502C95.7051 13.6494 96.2061 13.3506 96.9004 13.3506C97.9023 13.3506 98.5088 14.0273 98.5088 15.0469V18H97.7441V15.1875C97.7441 14.4624 97.3794 14.0273 96.6631 14.0273C95.9028 14.0273 95.4326 14.5459 95.4326 15.3369V18H94.668ZM101.312 14.0142C100.596 14.0142 100.095 14.5635 100.047 15.3237H102.53C102.512 14.5591 102.033 14.0142 101.312 14.0142ZM102.512 16.6904H103.264C103.132 17.4902 102.358 18.0791 101.361 18.0791C100.051 18.0791 99.2559 17.1694 99.2559 15.7324C99.2559 14.313 100.064 13.3506 101.326 13.3506C102.561 13.3506 103.321 14.2471 103.321 15.6313V15.9214H100.042V15.9653C100.042 16.8398 100.557 17.4155 101.378 17.4155C101.958 17.4155 102.385 17.1211 102.512 16.6904Z" fill="white"/>
<g clip-path="url(#clip0_2591_287)">
<path d="M18.2582 37.4758C17.707 37.1065 17.2144 36.655 16.8092 36.1318C16.3577 35.5936 15.9482 35.024 15.565 34.436C14.6716 33.1279 13.9742 31.7016 13.4869 30.1931C12.9032 28.4431 12.6206 26.7658 12.6206 25.1251C12.6206 23.2929 13.017 21.6934 13.7922 20.3494C14.3619 19.3011 15.2141 18.4218 16.2396 17.8066C17.2327 17.1871 18.386 16.8494 19.5524 16.8266C19.9627 16.8266 20.4046 16.8861 20.8736 16.9999C21.2105 17.0953 21.6209 17.2458 22.1222 17.433C22.7601 17.6789 23.111 17.8294 23.23 17.8661C23.6036 18.0026 23.9177 18.0621 24.1645 18.0621C24.3517 18.0621 24.616 18.0026 24.9161 17.9116C25.085 17.8521 25.4035 17.7471 25.8594 17.552C26.3109 17.3875 26.6661 17.2466 26.9487 17.1416C27.3819 17.0139 27.801 16.8958 28.1746 16.8363C28.6305 16.768 29.0811 16.7453 29.5142 16.7811C30.3437 16.8363 31.1006 17.0139 31.7796 17.2685C32.9687 17.7471 33.9304 18.4944 34.6461 19.5566C34.3407 19.7439 34.0625 19.9574 33.7982 20.1989C33.2286 20.7003 32.75 21.2926 32.3624 21.9533C31.861 22.851 31.6055 23.8678 31.6107 24.8924C31.6291 26.155 31.9529 27.2671 32.5907 28.2288C33.0466 28.9305 33.6477 29.5273 34.3819 30.0199C34.7467 30.2658 35.0609 30.4346 35.3619 30.5484C35.221 30.9859 35.0705 31.4094 34.8929 31.8294C34.4869 32.7726 34.0039 33.6748 33.4342 34.527C32.9285 35.2611 32.5321 35.808 32.2311 36.172C31.7621 36.7276 31.3106 37.152 30.8547 37.4478C30.3534 37.7803 29.761 37.9579 29.159 37.9579C28.7486 37.9763 28.3435 37.9211 27.9515 37.8118C27.6146 37.698 27.2812 37.5746 26.9531 37.4338C26.611 37.2789 26.2601 37.1424 25.9005 37.0374C25.4542 36.9193 24.9984 36.8641 24.5425 36.8641C24.0735 36.8641 23.6176 36.9236 23.1889 37.033C22.824 37.138 22.4731 37.2605 22.1266 37.411C21.6392 37.6158 21.3155 37.7531 21.1282 37.8118C20.7546 37.9211 20.367 37.9894 19.975 38.0121C19.3686 38.0121 18.8034 37.8389 18.2434 37.488L18.2582 37.4758ZM26.2557 15.9376C25.463 16.334 24.7061 16.5029 23.9545 16.4478C23.8364 15.6909 23.9545 14.9165 24.2686 14.0686C24.5469 13.3441 24.9205 12.6923 25.435 12.1086C25.9679 11.5023 26.611 11.0009 27.3355 10.6413C28.1055 10.2449 28.8396 10.0305 29.5414 9.99902C29.6324 10.7918 29.5414 11.5714 29.25 12.414C28.9814 13.1613 28.585 13.8499 28.0836 14.465C27.5735 15.0714 26.9444 15.5728 26.233 15.9368L26.2557 15.9376Z" fill="white"/>
</g>
<defs>
<filter id="filter0_b_2591_287" x="-44" y="-44" width="238" height="136" filterUnits="userSpaceOnUse" color-interpolation-filters="sRGB">
<feFlood flood-opacity="0" result="BackgroundImageFix"/>
<feGaussianBlur in="BackgroundImageFix" stdDeviation="22"/>
<feComposite in2="SourceAlpha" operator="in" result="effect1_backgroundBlur_2591_287"/>
<feBlend mode="normal" in="SourceGraphic" in2="effect1_backgroundBlur_2591_287" result="shape"/>
</filter>
<clipPath id="clip0_2591_287">
<rect width="28" height="28" fill="white" transform="translate(10 10)"/>
</clipPath>
</defs>
</svg>
