<svg width="150" height="48" viewBox="0 0 150 48" fill="none" xmlns="http://www.w3.org/2000/svg">
<g filter="url(#filter0_b_2591_286)">
<rect width="150" height="48" rx="10" fill="white" fill-opacity="0.1"/>
</g>
<path d="M47.146 35.18C46.246 35.18 45.4 35.018 44.608 34.694C43.828 34.358 43.138 33.89 42.538 33.29C41.95 32.69 41.488 32 41.152 31.22C40.828 30.428 40.666 29.576 40.666 28.664C40.666 27.74 40.834 26.888 41.17 26.108C41.506 25.316 41.974 24.626 42.574 24.038C43.174 23.438 43.876 22.976 44.68 22.652C45.484 22.316 46.354 22.148 47.29 22.148C48.334 22.148 49.294 22.346 50.17 22.742C51.046 23.126 51.772 23.672 52.348 24.38L50.692 26.036C50.296 25.52 49.804 25.124 49.216 24.848C48.628 24.572 47.98 24.434 47.272 24.434C46.468 24.434 45.754 24.614 45.13 24.974C44.518 25.322 44.038 25.814 43.69 26.45C43.342 27.074 43.168 27.806 43.168 28.646C43.168 29.486 43.336 30.23 43.672 30.878C44.02 31.514 44.488 32.012 45.076 32.372C45.676 32.732 46.36 32.912 47.128 32.912C47.92 32.912 48.598 32.768 49.162 32.48C49.726 32.18 50.158 31.748 50.458 31.184C50.758 30.608 50.908 29.906 50.908 29.078L52.51 30.176L46.984 30.122V27.998H53.428V28.34C53.428 29.852 53.158 31.118 52.618 32.138C52.078 33.146 51.334 33.908 50.386 34.424C49.45 34.928 48.37 35.18 47.146 35.18ZM58.5998 35.18C57.7238 35.18 56.9318 34.982 56.2238 34.586C55.5278 34.178 54.9698 33.632 54.5498 32.948C54.1418 32.252 53.9378 31.478 53.9378 30.626C53.9378 29.774 54.1418 29.012 54.5498 28.34C54.9578 27.656 55.5158 27.116 56.2238 26.72C56.9318 26.312 57.7178 26.108 58.5818 26.108C59.4698 26.108 60.2618 26.312 60.9578 26.72C61.6658 27.116 62.2238 27.656 62.6318 28.34C63.0398 29.012 63.2438 29.774 63.2438 30.626C63.2438 31.478 63.0398 32.252 62.6318 32.948C62.2238 33.632 61.6658 34.178 60.9578 34.586C60.2618 34.982 59.4758 35.18 58.5998 35.18ZM58.5818 32.984C59.0258 32.984 59.4158 32.888 59.7518 32.696C60.0998 32.492 60.3638 32.216 60.5438 31.868C60.7358 31.508 60.8318 31.1 60.8318 30.644C60.8318 30.188 60.7358 29.786 60.5438 29.438C60.3518 29.09 60.0878 28.82 59.7518 28.628C59.4158 28.424 59.0258 28.322 58.5818 28.322C58.1498 28.322 57.7658 28.424 57.4298 28.628C57.0938 28.82 56.8298 29.09 56.6378 29.438C56.4458 29.786 56.3498 30.188 56.3498 30.644C56.3498 31.1 56.4458 31.508 56.6378 31.868C56.8298 32.216 57.0938 32.492 57.4298 32.696C57.7658 32.888 58.1498 32.984 58.5818 32.984ZM68.3078 35.18C67.4318 35.18 66.6398 34.982 65.9318 34.586C65.2358 34.178 64.6778 33.632 64.2578 32.948C63.8498 32.252 63.6458 31.478 63.6458 30.626C63.6458 29.774 63.8498 29.012 64.2578 28.34C64.6658 27.656 65.2238 27.116 65.9318 26.72C66.6398 26.312 67.4258 26.108 68.2898 26.108C69.1778 26.108 69.9698 26.312 70.6658 26.72C71.3738 27.116 71.9318 27.656 72.3398 28.34C72.7478 29.012 72.9518 29.774 72.9518 30.626C72.9518 31.478 72.7478 32.252 72.3398 32.948C71.9318 33.632 71.3738 34.178 70.6658 34.586C69.9698 34.982 69.1838 35.18 68.3078 35.18ZM68.2898 32.984C68.7338 32.984 69.1238 32.888 69.4598 32.696C69.8078 32.492 70.0718 32.216 70.2518 31.868C70.4438 31.508 70.5398 31.1 70.5398 30.644C70.5398 30.188 70.4438 29.786 70.2518 29.438C70.0598 29.09 69.7958 28.82 69.4598 28.628C69.1238 28.424 68.7338 28.322 68.2898 28.322C67.8578 28.322 67.4738 28.424 67.1378 28.628C66.8018 28.82 66.5378 29.09 66.3458 29.438C66.1538 29.786 66.0578 30.188 66.0578 30.644C66.0578 31.1 66.1538 31.508 66.3458 31.868C66.5378 32.216 66.8018 32.492 67.1378 32.696C67.4738 32.888 67.8578 32.984 68.2898 32.984ZM77.5659 38.852C76.6419 38.852 75.8259 38.684 75.1179 38.348C74.4099 38.024 73.8459 37.562 73.4259 36.962L74.9199 35.468C75.2559 35.864 75.6279 36.164 76.0359 36.368C76.4559 36.584 76.9599 36.692 77.5479 36.692C78.2799 36.692 78.8559 36.506 79.2759 36.134C79.7079 35.762 79.9239 35.246 79.9239 34.586V32.408L80.3199 30.5L79.9419 28.592V26.306H82.2819V34.55C82.2819 35.414 82.0779 36.164 81.6699 36.8C81.2739 37.448 80.7219 37.952 80.0139 38.312C79.3059 38.672 78.4899 38.852 77.5659 38.852ZM77.4579 34.766C76.6779 34.766 75.9759 34.58 75.3519 34.208C74.7279 33.824 74.2359 33.302 73.8759 32.642C73.5279 31.982 73.3539 31.244 73.3539 30.428C73.3539 29.612 73.5279 28.88 73.8759 28.232C74.2359 27.584 74.7279 27.074 75.3519 26.702C75.9759 26.318 76.6779 26.126 77.4579 26.126C78.1059 26.126 78.6759 26.252 79.1679 26.504C79.6719 26.756 80.0679 27.104 80.3559 27.548C80.6439 27.98 80.7999 28.49 80.8239 29.078V31.814C80.7999 32.39 80.6379 32.906 80.3379 33.362C80.0499 33.806 79.6539 34.154 79.1499 34.406C78.6579 34.646 78.0939 34.766 77.4579 34.766ZM77.9259 32.624C78.3579 32.624 78.7299 32.534 79.0419 32.354C79.3659 32.162 79.6179 31.904 79.7979 31.58C79.9779 31.244 80.0679 30.866 80.0679 30.446C80.0679 30.014 79.9779 29.636 79.7979 29.312C79.6179 28.988 79.3659 28.736 79.0419 28.556C78.7299 28.364 78.3579 28.268 77.9259 28.268C77.4939 28.268 77.1159 28.364 76.7919 28.556C76.4679 28.736 76.2159 28.994 76.0359 29.33C75.8559 29.654 75.7659 30.026 75.7659 30.446C75.7659 30.854 75.8559 31.226 76.0359 31.562C76.2159 31.886 76.4679 32.144 76.7919 32.336C77.1159 32.528 77.4939 32.624 77.9259 32.624ZM83.8137 35V21.986H86.1717V35H83.8137ZM91.879 35.18C90.967 35.18 90.157 34.988 89.449 34.604C88.741 34.208 88.177 33.668 87.757 32.984C87.349 32.3 87.145 31.52 87.145 30.644C87.145 29.78 87.343 29.012 87.739 28.34C88.147 27.656 88.699 27.116 89.395 26.72C90.091 26.312 90.865 26.108 91.717 26.108C92.557 26.108 93.295 26.3 93.931 26.684C94.579 27.056 95.083 27.572 95.443 28.232C95.815 28.88 96.001 29.618 96.001 30.446C96.001 30.602 95.989 30.764 95.965 30.932C95.953 31.088 95.923 31.268 95.875 31.472L88.567 31.49V29.726L94.777 29.708L93.823 30.446C93.799 29.93 93.703 29.498 93.535 29.15C93.379 28.802 93.145 28.538 92.833 28.358C92.533 28.166 92.161 28.07 91.717 28.07C91.249 28.07 90.841 28.178 90.493 28.394C90.145 28.598 89.875 28.892 89.683 29.276C89.503 29.648 89.413 30.092 89.413 30.608C89.413 31.136 89.509 31.598 89.701 31.994C89.905 32.378 90.193 32.678 90.565 32.894C90.937 33.098 91.369 33.2 91.861 33.2C92.305 33.2 92.707 33.128 93.067 32.984C93.427 32.828 93.739 32.6 94.003 32.3L95.389 33.686C94.969 34.178 94.453 34.55 93.841 34.802C93.241 35.054 92.587 35.18 91.879 35.18ZM101.947 30.302V28.304H104.881C105.265 28.304 105.613 28.226 105.925 28.07C106.237 27.914 106.483 27.692 106.663 27.404C106.843 27.104 106.933 26.744 106.933 26.324C106.933 25.916 106.843 25.562 106.663 25.262C106.483 24.962 106.237 24.734 105.925 24.578C105.613 24.422 105.265 24.344 104.881 24.344H101.947V22.346H105.133C105.937 22.346 106.657 22.508 107.293 22.832C107.941 23.156 108.451 23.618 108.823 24.218C109.195 24.806 109.381 25.508 109.381 26.324C109.381 27.14 109.195 27.848 108.823 28.448C108.451 29.036 107.941 29.492 107.293 29.816C106.657 30.14 105.937 30.302 105.133 30.302H101.947ZM100.147 35V22.346H102.595V35H100.147ZM110.447 35V21.986H112.805V35H110.447ZM117.99 35.18C117.198 35.18 116.484 34.982 115.848 34.586C115.212 34.19 114.714 33.65 114.354 32.966C113.994 32.282 113.814 31.514 113.814 30.662C113.814 29.798 113.994 29.024 114.354 28.34C114.714 27.656 115.212 27.116 115.848 26.72C116.484 26.324 117.198 26.126 117.99 26.126C118.614 26.126 119.172 26.252 119.664 26.504C120.156 26.756 120.546 27.11 120.834 27.566C121.134 28.01 121.296 28.514 121.32 29.078V32.21C121.296 32.786 121.134 33.296 120.834 33.74C120.546 34.184 120.156 34.538 119.664 34.802C119.172 35.054 118.614 35.18 117.99 35.18ZM118.422 33.002C119.082 33.002 119.616 32.786 120.024 32.354C120.432 31.91 120.636 31.34 120.636 30.644C120.636 30.188 120.54 29.786 120.348 29.438C120.168 29.078 119.91 28.802 119.574 28.61C119.25 28.406 118.866 28.304 118.422 28.304C117.99 28.304 117.606 28.406 117.27 28.61C116.946 28.802 116.688 29.078 116.496 29.438C116.316 29.786 116.226 30.188 116.226 30.644C116.226 31.112 116.316 31.526 116.496 31.886C116.688 32.234 116.946 32.51 117.27 32.714C117.606 32.906 117.99 33.002 118.422 33.002ZM120.51 35V32.66L120.888 30.536L120.51 28.448V26.306H122.85V35H120.51ZM127.132 35.072L123.496 26.306H126.052L128.464 33.002H127.6L130.102 26.306H132.676L128.806 35.054L127.132 35.072ZM124.72 38.636L127.366 33.038L128.806 35.054L127.222 38.636H124.72Z" fill="white"/>
<path d="M45.9634 15.3765C45.9634 17.0903 44.9658 18.1055 43.2739 18.1055C41.5029 18.1055 40.3691 16.8135 40.3691 14.7964C40.3691 12.8145 41.4985 11.5532 43.2739 11.5532C44.645 11.5532 45.6865 12.3662 45.9238 13.6274H45.0933C44.8296 12.7705 44.166 12.2827 43.2739 12.2827C41.9688 12.2827 41.1821 13.2231 41.1821 14.792C41.1821 16.3872 41.9819 17.376 43.2739 17.376C44.3989 17.376 45.1724 16.6465 45.1724 15.583V15.4688H43.3838V14.7744H45.9634V15.3765ZM48.6924 14.0142C47.9761 14.0142 47.4751 14.5635 47.4268 15.3237H49.9097C49.8921 14.5591 49.4131 14.0142 48.6924 14.0142ZM49.8921 16.6904H50.6436C50.5117 17.4902 49.7383 18.0791 48.7407 18.0791C47.4312 18.0791 46.6357 17.1694 46.6357 15.7324C46.6357 14.313 47.4443 13.3506 48.7056 13.3506C49.9404 13.3506 50.7007 14.2471 50.7007 15.6313V15.9214H47.4224V15.9653C47.4224 16.8398 47.9365 17.4155 48.7583 17.4155C49.3384 17.4155 49.7646 17.1211 49.8921 16.6904ZM51.7202 12.3267H52.4849V13.4297H53.3726V14.0581H52.4849V16.7739C52.4849 17.1914 52.6606 17.3804 53.0518 17.3804C53.1396 17.3804 53.3154 17.3672 53.3682 17.3584V18C53.2759 18.022 53.0649 18.0352 52.8848 18.0352C52.0454 18.0352 51.7202 17.6924 51.7202 16.8135V14.0581H51.0391V13.4297H51.7202V12.3267ZM56.0752 18V13.4297H56.8398V18H56.0752ZM56.4575 12.6606C56.1982 12.6606 55.9829 12.4453 55.9829 12.186C55.9829 11.9224 56.1982 11.7114 56.4575 11.7114C56.7212 11.7114 56.9365 11.9224 56.9365 12.186C56.9365 12.4453 56.7212 12.6606 56.4575 12.6606ZM58.1187 12.3267H58.8833V13.4297H59.771V14.0581H58.8833V16.7739C58.8833 17.1914 59.0591 17.3804 59.4502 17.3804C59.5381 17.3804 59.7139 17.3672 59.7666 17.3584V18C59.6743 18.022 59.4634 18.0352 59.2832 18.0352C58.4438 18.0352 58.1187 17.6924 58.1187 16.8135V14.0581H57.4375V13.4297H58.1187V12.3267ZM64.3281 18.0791C63.0625 18.0791 62.21 17.1694 62.21 15.7148C62.21 14.2559 63.0625 13.3506 64.3281 13.3506C65.5894 13.3506 66.4419 14.2559 66.4419 15.7148C66.4419 17.1694 65.5894 18.0791 64.3281 18.0791ZM64.3281 17.4067C65.1367 17.4067 65.6641 16.7915 65.6641 15.7148C65.6641 14.6382 65.1367 14.0229 64.3281 14.0229C63.5195 14.0229 62.9878 14.6382 62.9878 15.7148C62.9878 16.7915 63.5195 17.4067 64.3281 17.4067ZM67.2153 18V13.4297H67.936V14.1592H67.9536C68.2085 13.667 68.6963 13.3506 69.4038 13.3506C70.4058 13.3506 70.9858 13.9966 70.9858 15.0337V18H70.2212V15.1699C70.2212 14.4316 69.874 14.0273 69.1709 14.0273C68.4502 14.0273 67.98 14.5371 67.98 15.3105V18H67.2153Z" fill="white"/>
<path d="M27.7897 22.8135L15.7199 10.7114L31.0762 19.527L27.7897 22.8135ZM12.5708 10C11.8594 10.3719 11.3843 11.05 11.3843 11.9303V36.0636C11.3843 36.9439 11.8603 37.622 12.5708 37.9939L26.604 23.9939L12.5708 10ZM35.823 22.3375L32.6022 20.4729L29.0094 24L32.6022 27.5271L35.8887 25.6625C36.873 24.8811 36.873 23.1198 35.823 22.3375ZM15.7208 37.2895L31.077 28.4739L27.7905 25.1874L15.7208 37.2895Z" fill="white"/>
<defs>
<filter id="filter0_b_2591_286" x="-44" y="-44" width="238" height="136" filterUnits="userSpaceOnUse" color-interpolation-filters="sRGB">
<feFlood flood-opacity="0" result="BackgroundImageFix"/>
<feGaussianBlur in="BackgroundImageFix" stdDeviation="22"/>
<feComposite in2="SourceAlpha" operator="in" result="effect1_backgroundBlur_2591_286"/>
<feBlend mode="normal" in="SourceGraphic" in2="effect1_backgroundBlur_2591_286" result="shape"/>
</filter>
</defs>
</svg>
