<svg width="20" height="20" viewBox="0 0 20 20" fill="none" xmlns="http://www.w3.org/2000/svg">
<path d="M14.4538 13.4037L14.0598 13.8951L14.507 14.3387L17.5912 17.3979C17.6134 17.4224 17.6257 17.4543 17.6257 17.4875C17.6257 17.5206 17.6135 17.5524 17.5914 17.5769C17.5797 17.5879 17.5661 17.5967 17.5512 17.6029L17.5512 17.6029C17.535 17.6097 17.5175 17.6132 17.4999 17.6132C17.4823 17.6132 17.4649 17.6097 17.4487 17.6029L17.4486 17.6029C17.4324 17.5962 17.4177 17.5862 17.4053 17.5737L17.4032 17.5717L14.3366 14.505L13.893 14.0615L13.4036 14.4539C12.047 15.542 10.325 16.0689 8.59172 15.9264C6.85848 15.7838 5.24573 14.9826 4.08509 13.6874C2.92446 12.3923 2.30415 10.7017 2.35172 8.96326C2.39929 7.22482 3.11112 5.57067 4.34085 4.34094C5.57057 3.11121 7.22472 2.39938 8.96317 2.35181C10.7016 2.30424 12.3922 2.92455 13.6874 4.08518C14.9825 5.24582 15.7837 6.85857 15.9263 8.59181C16.0689 10.3251 15.5419 12.0471 14.4538 13.4037ZM5.53686 14.5989C6.61126 15.3168 7.87442 15.7 9.16659 15.7C10.8993 15.7 12.5611 15.0117 13.7864 13.7864C15.0116 12.5612 15.6999 10.8994 15.6999 9.16668C15.6999 7.87451 15.3167 6.61135 14.5989 5.53695C13.881 4.46255 12.8606 3.62516 11.6668 3.13067C10.473 2.63617 9.15934 2.50679 7.892 2.75888C6.62465 3.01097 5.46053 3.63321 4.54682 4.54691C3.63312 5.46062 3.01088 6.62475 2.75879 7.89209C2.5067 9.15943 2.63608 10.4731 3.13057 11.6669C3.62507 12.8607 4.46246 13.8811 5.53686 14.5989Z" stroke="#121212" stroke-width="1.4"/>
</svg>
